<svg xmlns="http://www.w3.org/2000/svg" width="512" height="512" viewBox="0 0 512 512" version="1.1"><path d="" stroke="none" fill="#fffcfc" fill-rule="evenodd"/><path d="M 235 0.681 C 217.533 3.533, 202.301 8.682, 190.604 15.689 C 172.483 26.544, 156.040 42.859, 145.213 60.729 C 139.638 69.930, 134.582 82.676, 131.817 94.500 C 128.899 106.981, 128.181 131.974, 130.376 144.636 C 136.760 181.449, 158.893 212.623, 192.202 231.718 C 224.994 250.516, 268.741 252.141, 304.577 235.892 C 316.553 230.462, 327.910 222.250, 339.580 210.580 C 365.754 184.405, 377.340 154.624, 375.691 117.751 C 374.231 85.090, 363.070 59.392, 340.327 36.332 C 322.067 17.816, 299.437 5.877, 274.290 1.491 C 266.424 0.120, 241.575 -0.393, 235 0.681 M 233.105 32.489 C 222.423 34.902, 214.784 37.807, 206.958 42.432 C 185.914 54.870, 170.153 74.419, 163.367 96.500 C 160.805 104.838, 160.598 106.787, 160.559 123 C 160.522 138.253, 160.806 141.500, 162.767 148.291 C 167.464 164.558, 175.875 177.905, 189.711 191.046 C 207.388 207.835, 227.785 215.920, 252.619 215.980 C 277.648 216.041, 301.027 206.068, 318.572 187.845 C 330.374 175.587, 337.055 164.432, 341.653 149.307 C 344.099 141.259, 344.332 139.035, 344.353 123.500 C 344.375 107.842, 344.164 105.806, 341.682 97.712 C 336.822 81.865, 330.169 70.772, 318.260 58.659 C 306.424 46.620, 292.811 38.287, 277.829 33.909 C 268.207 31.098, 242.828 30.292, 233.105 32.489 M 141 247.637 C 117.924 251.007, 100.363 259.595, 85.722 274.670 C 57.733 303.489, 42.040 354.610, 42.010 417.066 C 41.997 443.455, 43.865 452.933, 52.345 469.500 C 55.445 475.556, 58.634 479.712, 65.470 486.603 C 75.305 496.517, 83.831 502.085, 95.688 506.335 C 112.208 512.258, 106.651 512.074, 259.553 511.759 L 399.500 511.470 408 508.855 C 418.779 505.538, 424.480 503.029, 431.727 498.414 C 448.370 487.816, 460.744 471.038, 465.956 452.004 C 469.223 440.074, 470.121 425.919, 469.004 403.972 C 464.018 306.006, 426.820 250.800, 363.457 247.328 C 349.874 246.584, 349.737 246.637, 326.409 261.574 C 308.445 273.077, 295.915 278.811, 279.289 283.139 C 266.838 286.380, 244.378 286.397, 232 283.175 C 214.331 278.577, 202.394 273.107, 184.385 261.356 C 177.848 257.091, 169.655 252.116, 166.177 250.301 C 160.421 247.295, 159.123 247.012, 151.677 247.136 C 147.180 247.211, 142.375 247.437, 141 247.637 M 139.500 279.480 C 117.770 284.264, 103.973 296.232, 91.393 321.212 C 83.633 336.622, 76.693 364.094, 74.016 390 C 72.412 405.527, 72.733 434.181, 74.592 441.356 C 79.693 461.044, 93.541 474.326, 114.600 479.730 C 121.033 481.380, 130.539 481.500, 255 481.500 C 380.291 481.500, 388.974 481.389, 396.208 479.691 C 415.146 475.247, 429.206 463.226, 435.108 446.432 C 438.220 437.578, 438.938 427.412, 437.961 406 C 435.256 346.680, 418.585 304, 391.500 287.058 C 385.473 283.287, 373.577 279.391, 365.202 278.443 L 359.074 277.750 344.287 287.244 C 326.556 298.628, 316.757 303.663, 303.063 308.430 C 272.951 318.911, 244.407 319.544, 214.239 310.400 C 198.659 305.677, 185.423 299.240, 167.518 287.676 C 151.108 277.078, 150.809 276.990, 139.500 279.480" stroke="none" fill="#fcfcfc" fill-rule="evenodd"/></svg>